<mxfile host="app.diagrams.net" modified="2021-03-15T09:49:40.732Z" agent="5.0 (Macintosh; Intel Mac OS X 10_14_5) AppleWebKit/537.36 (KHTML, like Gecko) Chrome/89.0.4389.82 Safari/537.36" etag="47h5Bl8iN0m6Ezz6bdKi" version="14.4.8" type="github">
  <diagram id="9QrlEemNaeu3nnC_00me" name="Page-1">
    <mxGraphModel dx="1351" dy="736" grid="1" gridSize="10" guides="1" tooltips="1" connect="1" arrows="1" fold="1" page="1" pageScale="1" pageWidth="1169" pageHeight="827" math="0" shadow="0">
      <root>
        <mxCell id="0" />
        <mxCell id="1" parent="0" />
        <mxCell id="9wjR2PzeZUfpXN6JXG1k-3" value="" style="edgeStyle=orthogonalEdgeStyle;rounded=0;orthogonalLoop=1;jettySize=auto;html=1;fontSize=16;" edge="1" parent="1" source="9wjR2PzeZUfpXN6JXG1k-1" target="9wjR2PzeZUfpXN6JXG1k-2">
          <mxGeometry relative="1" as="geometry" />
        </mxCell>
        <mxCell id="9wjR2PzeZUfpXN6JXG1k-1" value="Actor" style="shape=umlActor;verticalLabelPosition=bottom;verticalAlign=top;html=1;fontSize=16;" vertex="1" parent="1">
          <mxGeometry x="100" y="50" width="30" height="60" as="geometry" />
        </mxCell>
        <mxCell id="9wjR2PzeZUfpXN6JXG1k-5" value="" style="edgeStyle=orthogonalEdgeStyle;rounded=0;orthogonalLoop=1;jettySize=auto;html=1;fontSize=16;" edge="1" parent="1" source="9wjR2PzeZUfpXN6JXG1k-2" target="9wjR2PzeZUfpXN6JXG1k-4">
          <mxGeometry relative="1" as="geometry" />
        </mxCell>
        <mxCell id="9wjR2PzeZUfpXN6JXG1k-2" value="CreateFile" style="whiteSpace=wrap;html=1;verticalAlign=middle;fontSize=16;fillColor=#dae8fc;strokeColor=#6c8ebf;" vertex="1" parent="1">
          <mxGeometry x="160" y="50" width="160" height="60" as="geometry" />
        </mxCell>
        <mxCell id="9wjR2PzeZUfpXN6JXG1k-7" value="" style="edgeStyle=orthogonalEdgeStyle;rounded=0;orthogonalLoop=1;jettySize=auto;html=1;fontSize=16;" edge="1" parent="1" source="9wjR2PzeZUfpXN6JXG1k-4" target="9wjR2PzeZUfpXN6JXG1k-6">
          <mxGeometry relative="1" as="geometry" />
        </mxCell>
        <mxCell id="9wjR2PzeZUfpXN6JXG1k-4" value="Ozone Manager" style="whiteSpace=wrap;html=1;verticalAlign=middle;fontSize=16;fillColor=#d5e8d4;strokeColor=#82b366;" vertex="1" parent="1">
          <mxGeometry x="400" y="50" width="165" height="60" as="geometry" />
        </mxCell>
        <mxCell id="9wjR2PzeZUfpXN6JXG1k-9" value="" style="edgeStyle=orthogonalEdgeStyle;rounded=0;orthogonalLoop=1;jettySize=auto;html=1;fontSize=16;" edge="1" parent="1" source="9wjR2PzeZUfpXN6JXG1k-6" target="9wjR2PzeZUfpXN6JXG1k-8">
          <mxGeometry relative="1" as="geometry" />
        </mxCell>
        <mxCell id="9wjR2PzeZUfpXN6JXG1k-6" value="AllocateBlock" style="whiteSpace=wrap;html=1;verticalAlign=middle;fontSize=16;fillColor=#e1d5e7;strokeColor=#9673a6;" vertex="1" parent="1">
          <mxGeometry x="407.5" y="150" width="150" height="50" as="geometry" />
        </mxCell>
        <mxCell id="9wjR2PzeZUfpXN6JXG1k-8" value="Storage Container&lt;br style=&quot;font-size: 16px;&quot;&gt;Manager" style="whiteSpace=wrap;html=1;verticalAlign=middle;fontSize=16;fillColor=#ffe6cc;strokeColor=#d79b00;" vertex="1" parent="1">
          <mxGeometry x="400" y="240" width="165" height="60" as="geometry" />
        </mxCell>
        <mxCell id="9wjR2PzeZUfpXN6JXG1k-11" value="WriteChunk" style="rounded=0;whiteSpace=wrap;html=1;fontSize=16;fillColor=#b1ddf0;strokeColor=#10739e;" vertex="1" parent="1">
          <mxGeometry x="160" y="140" width="160" height="40" as="geometry" />
        </mxCell>
        <mxCell id="9wjR2PzeZUfpXN6JXG1k-12" value="WriteChunk" style="rounded=0;whiteSpace=wrap;html=1;fontSize=16;fillColor=#b1ddf0;strokeColor=#10739e;" vertex="1" parent="1">
          <mxGeometry x="160" y="190" width="160" height="40" as="geometry" />
        </mxCell>
        <mxCell id="9wjR2PzeZUfpXN6JXG1k-13" value="PutBlock" style="rounded=0;whiteSpace=wrap;html=1;fontSize=16;fillColor=#b1ddf0;strokeColor=#10739e;" vertex="1" parent="1">
          <mxGeometry x="160" y="240" width="160" height="40" as="geometry" />
        </mxCell>
        <mxCell id="9wjR2PzeZUfpXN6JXG1k-14" value="WriteChunk" style="rounded=0;whiteSpace=wrap;html=1;fontSize=16;fillColor=#b1ddf0;strokeColor=#10739e;" vertex="1" parent="1">
          <mxGeometry x="160" y="290" width="160" height="40" as="geometry" />
        </mxCell>
        <mxCell id="9wjR2PzeZUfpXN6JXG1k-15" value="WriteChunk" style="rounded=0;whiteSpace=wrap;html=1;fontSize=16;fillColor=#b1ddf0;strokeColor=#10739e;" vertex="1" parent="1">
          <mxGeometry x="160" y="343.5" width="160" height="40" as="geometry" />
        </mxCell>
        <mxCell id="9wjR2PzeZUfpXN6JXG1k-16" value="PutBlock" style="rounded=0;whiteSpace=wrap;html=1;fontSize=16;fillColor=#b1ddf0;strokeColor=#10739e;" vertex="1" parent="1">
          <mxGeometry x="160" y="390" width="160" height="40" as="geometry" />
        </mxCell>
        <mxCell id="9wjR2PzeZUfpXN6JXG1k-19" style="edgeStyle=orthogonalEdgeStyle;rounded=0;orthogonalLoop=1;jettySize=auto;html=1;exitX=1;exitY=0.5;exitDx=0;exitDy=0;entryX=1;entryY=0.5;entryDx=0;entryDy=0;fontSize=16;" edge="1" parent="1" source="9wjR2PzeZUfpXN6JXG1k-18" target="9wjR2PzeZUfpXN6JXG1k-4">
          <mxGeometry relative="1" as="geometry">
            <Array as="points">
              <mxPoint x="820" y="490" />
              <mxPoint x="820" y="80" />
            </Array>
          </mxGeometry>
        </mxCell>
        <mxCell id="9wjR2PzeZUfpXN6JXG1k-18" value="CompleteFile" style="whiteSpace=wrap;html=1;verticalAlign=middle;fontSize=16;fillColor=#dae8fc;strokeColor=#6c8ebf;" vertex="1" parent="1">
          <mxGeometry x="160" y="460" width="160" height="60" as="geometry" />
        </mxCell>
        <mxCell id="9wjR2PzeZUfpXN6JXG1k-21" style="edgeStyle=orthogonalEdgeStyle;rounded=0;orthogonalLoop=1;jettySize=auto;html=1;exitX=0.1;exitY=0.5;exitDx=0;exitDy=0;exitPerimeter=0;fontSize=16;entryX=0;entryY=0.5;entryDx=0;entryDy=0;" edge="1" parent="1" source="9wjR2PzeZUfpXN6JXG1k-20" target="9wjR2PzeZUfpXN6JXG1k-23">
          <mxGeometry relative="1" as="geometry">
            <mxPoint x="359.9999999999998" y="400" as="targetPoint" />
            <Array as="points">
              <mxPoint x="370" y="285" />
              <mxPoint x="370" y="400" />
            </Array>
          </mxGeometry>
        </mxCell>
        <mxCell id="9wjR2PzeZUfpXN6JXG1k-20" value="" style="shape=curlyBracket;whiteSpace=wrap;html=1;rounded=1;fontSize=16;rotation=-180;size=0.5;" vertex="1" parent="1">
          <mxGeometry x="330" y="140" width="20" height="290" as="geometry" />
        </mxCell>
        <mxCell id="9wjR2PzeZUfpXN6JXG1k-25" value="" style="edgeStyle=orthogonalEdgeStyle;rounded=0;orthogonalLoop=1;jettySize=auto;html=1;fontSize=16;" edge="1" parent="1" source="9wjR2PzeZUfpXN6JXG1k-23" target="9wjR2PzeZUfpXN6JXG1k-24">
          <mxGeometry relative="1" as="geometry" />
        </mxCell>
        <mxCell id="9wjR2PzeZUfpXN6JXG1k-23" value="DataNode&lt;br&gt;(leader)" style="whiteSpace=wrap;html=1;verticalAlign=middle;fontSize=16;fillColor=#f8cecc;strokeColor=#b85450;" vertex="1" parent="1">
          <mxGeometry x="400" y="370" width="165" height="60" as="geometry" />
        </mxCell>
        <mxCell id="9wjR2PzeZUfpXN6JXG1k-24" value="DataNode&lt;br&gt;(follower)" style="whiteSpace=wrap;html=1;verticalAlign=middle;fontSize=16;fillColor=#f5f5f5;strokeColor=#666666;fontColor=#333333;" vertex="1" parent="1">
          <mxGeometry x="630" y="370" width="165" height="60" as="geometry" />
        </mxCell>
        <mxCell id="9wjR2PzeZUfpXN6JXG1k-28" value="DataNode&lt;br&gt;(follower)" style="whiteSpace=wrap;html=1;verticalAlign=middle;fontSize=16;fillColor=#f5f5f5;strokeColor=#666666;fontColor=#333333;" vertex="1" parent="1">
          <mxGeometry x="640" y="380" width="165" height="60" as="geometry" />
        </mxCell>
      </root>
    </mxGraphModel>
  </diagram>
</mxfile>
